<svg id="Layer_1" data-name="Layer 1" xmlns="http://www.w3.org/2000/svg" viewBox="0 0 445.04 442.36">
  <defs>
    <style>
      .cls-1 {
        fill: #e5313a;
      }

      .cls-2 {
        fill: #fff;
        fill-rule: evenodd;
      }
    </style>
  </defs>
  <title>GINJA_LOGO</title>
  <path class="cls-1" d="M296.94,406.06c26.19-119.24,145.7-194.33,265.74-168s195.17,144.2,169,263.45S587.87,696.3,467.83,669.93,270.74,525.31,296.94,406.06Z" transform="translate(-291.82 -232.82)"/>
  <g>
    <path class="cls-2" d="M573.36,461.1c-5,4.53-11.68,10.29-12.69,9.46a5.87,5.87,0,0,1-2-4.59,67.82,67.82,0,0,1,1.75-13.06c2.58-12.1,4.71-20.59,4.57-25.64q-0.24-8-4.36-11.3c-2.76-2.17-8.23-3.84-14.6-3.32-13.13,1.08-20,6.56-24.12,14.9l2.7-10.6-24.44,3.9L491,466c-5.63,5.55-18.85,17.58-18.94,13,0-2.15,11.82-56.39,11.82-56.39l-29.13,4.17s-10.47,48.25-10.36,55c0,2.57,1.34,5,3.91,7.4q4.53,4,11.66,3.34c8.63-.76,26.39-18.18,30.87-25.69l-4.31,21.29,30.24-17,4.86-28q3.69-18.63,11.5-19.27,4.66-.38,4.85,6.7c0.07,2.37-1,9-3.2,19.82L532.6,462a59.48,59.48,0,0,0-1,8.75q0.3,11.63,17,10.16a24.46,24.46,0,0,0,10.86-3.43c3.84-2.12,9.66-9.14,13.61-14.33l-3,17.43c-1.69,12.14-6.37,31.83-22.41,34.56,17.37-3,44.19,1,49.27-33.95L612,405.86l-29.8,3.87Z" transform="translate(-291.82 -232.82)"/>
    <path class="cls-2" d="M595.82,378c-11.24,2.16-14.65,7.4-12.89,12.83,1.61,5,10,6.8,18.74,5.1s14.5-7.88,12.89-12.83S604.6,376.33,595.82,378Z" transform="translate(-291.82 -232.82)"/>
    <path class="cls-2" d="M474.14,411.66c8.78-1.69,14.5-7.88,12.89-12.83s-10-6.8-18.74-5.1-14.5,7.88-12.89,12.83S465.36,413.36,474.14,411.66Z" transform="translate(-291.82 -232.82)"/>
    <path class="cls-2" d="M392.54,434.47L407.21,440l-5.39,31.36c-8.53,5.93-14.77,9.49-17.42,9.8-4.83.55-15.12,2.62-18.41-9.42-3.08-11.21-1-40.57,11.47-61.83a54.17,54.17,0,0,1,10.44-14.56,41.42,41.42,0,0,1,12.18-8.81c2.64-1.16,5.66-1.87,8.41-1a9.47,9.47,0,0,1,4.62,3.42c2.52,3.37,3.41,7.67,1.25,11.45a1.56,1.56,0,0,1-.27.45c-8.06,2-13.21,7.84-11.67,12.55,1.06,3.23,4.54,4.52,7.57,5.19q0.81,0.18,1.64.33a33.23,33.23,0,0,0,13.39-.19c10.11-2.38,17-10.71,19.9-20.4,4.43-13.6-5.77-20.19-7.21-21-8.28-5.41-23.2-6.7-37.58-3.52-22.68,5-44.18,23-57,47.3-8.34,15.77-13.72,37.89-12.64,51.26,1.69,20.89,10.79,32.37,33.68,32,15-.28,27.49-10.37,35-17l-2.76,16.06c-1.69,12.14-6.37,31.83-22.41,34.56,17.37-3,44.19,1,49.27-33.95l15.11-75.3h0l0.19-.29Z" transform="translate(-291.82 -232.82)"/>
    <path class="cls-2" d="M689.61,456.82a1.76,1.76,0,0,1-1.6.24,2.84,2.84,0,0,1-1.15-1,7.25,7.25,0,0,1-1-4.55A161,161,0,0,1,687.29,435c1.08-9,2.11-18,3.14-26.94l7.27-11.77-30.1,4-0.23,2.6c-4.52-1.78-11.77-3-20.54,0a41,41,0,0,0-19.62,13.79c-5.25,6.64-8.18,14.87-9.65,23.13a39.83,39.83,0,0,0-.21,15.44c1.1,5.06,3.85,9.92,8.19,12.75a19.74,19.74,0,0,0,7.27,2.76c11.23,2,22.49-4.55,27-14.92,0.82,2.13,2.56,8.54,5.19,9.62a20.79,20.79,0,0,0,9.71,1.12,29.39,29.39,0,0,0,11.77-3.48c3.34-2,9-8,9.84-10.94-1.53,0-3.28,2-4.37,2.86A20.82,20.82,0,0,1,689.61,456.82ZM658,455.25c-2.12,2.77-6.37,7.71-9.18,6.64-3.47-1.32-5-7.29-5.22-12.18a82.45,82.45,0,0,1,1.66-17.79c1.29-7,5.81-22.62,13-25.71,2.1-.91,5.44,2,6.46,5.65C664.66,411.85,660.09,452.49,658,455.25Z" transform="translate(-291.82 -232.82)"/>
  </g>
</svg>
